<svg xmlns="http://www.w3.org/2000/svg" xmlns:xlink="http://www.w3.org/1999/xlink" contentStyleType="text/css" height="992px" preserveAspectRatio="none" style="width:3834px;height:992px;background:#FFFFFF;" version="1.1" viewBox="0 0 3834 992" width="3834px" zoomAndPan="magnify"><defs/><g><!--cluster com--><g id="cluster_com"><path d="M8.5,6.0137 L38.2861,6.0137 A3.75,3.75 0 0 1 40.7861,8.5137 L47.7861,30.6348 L3824.5,30.6348 A2.5,2.5 0 0 1 3827,33.1348 L3827,983.0137 A2.5,2.5 0 0 1 3824.5,985.5137 L8.5,985.5137 A2.5,2.5 0 0 1 6,983.0137 L6,8.5137 A2.5,2.5 0 0 1 8.5,6.0137 " fill="none" style="stroke:#000000;stroke-width:1.5;"/><line style="stroke:#000000;stroke-width:1.5;" x1="6" x2="47.7861" y1="30.6348" y2="30.6348"/><text fill="#000000" font-family="sans-serif" font-size="14" font-weight="bold" lengthAdjust="spacing" textLength="28.7861" x="10" y="23.1211">com</text></g><!--cluster esiea--><g id="cluster_esiea"><path d="M292.5,51.0137 L328.5342,51.0137 A3.75,3.75 0 0 1 331.0342,53.5137 L338.0342,75.6348 L3800.5,75.6348 A2.5,2.5 0 0 1 3803,78.1348 L3803,959.0137 A2.5,2.5 0 0 1 3800.5,961.5137 L292.5,961.5137 A2.5,2.5 0 0 1 290,959.0137 L290,53.5137 A2.5,2.5 0 0 1 292.5,51.0137 " fill="none" style="stroke:#000000;stroke-width:1.5;"/><line style="stroke:#000000;stroke-width:1.5;" x1="290" x2="338.0342" y1="75.6348" y2="75.6348"/><text fill="#000000" font-family="sans-serif" font-size="14" font-weight="bold" lengthAdjust="spacing" textLength="35.0342" x="294" y="68.1211">esiea</text></g><!--cluster pootd2--><g id="cluster_pootd2"><path d="M316.5,96.0137 L364.1553,96.0137 A3.75,3.75 0 0 1 366.6553,98.5137 L373.6553,120.6348 L3776.5,120.6348 A2.5,2.5 0 0 1 3779,123.1348 L3779,935.0137 A2.5,2.5 0 0 1 3776.5,937.5137 L316.5,937.5137 A2.5,2.5 0 0 1 314,935.0137 L314,98.5137 A2.5,2.5 0 0 1 316.5,96.0137 " fill="none" style="stroke:#000000;stroke-width:1.5;"/><line style="stroke:#000000;stroke-width:1.5;" x1="314" x2="373.6553" y1="120.6348" y2="120.6348"/><text fill="#000000" font-family="sans-serif" font-size="14" font-weight="bold" lengthAdjust="spacing" textLength="46.6553" x="318" y="113.1211">pootd2</text></g><!--cluster models--><g id="cluster_models"><path d="M3253.5,141.0137 L3303.5137,141.0137 A3.75,3.75 0 0 1 3306.0137,143.5137 L3313.0137,165.6348 L3752.5,165.6348 A2.5,2.5 0 0 1 3755,168.1348 L3755,598.5137 A2.5,2.5 0 0 1 3752.5,601.0137 L3253.5,601.0137 A2.5,2.5 0 0 1 3251,598.5137 L3251,143.5137 A2.5,2.5 0 0 1 3253.5,141.0137 " fill="none" style="stroke:#000000;stroke-width:1.5;"/><line style="stroke:#000000;stroke-width:1.5;" x1="3251" x2="3313.0137" y1="165.6348" y2="165.6348"/><text fill="#000000" font-family="sans-serif" font-size="14" font-weight="bold" lengthAdjust="spacing" textLength="49.0137" x="3255" y="158.1211">models</text></g><!--cluster commands--><g id="cluster_commands"><path d="M1551.5,142.5137 L1626.4102,142.5137 A3.75,3.75 0 0 1 1628.9102,145.0137 L1635.9102,167.1348 L3224.5,167.1348 A2.5,2.5 0 0 1 3227,169.6348 L3227,594.5137 A2.5,2.5 0 0 1 3224.5,597.0137 L1551.5,597.0137 A2.5,2.5 0 0 1 1549,594.5137 L1549,145.0137 A2.5,2.5 0 0 1 1551.5,142.5137 " fill="none" style="stroke:#000000;stroke-width:1.5;"/><line style="stroke:#000000;stroke-width:1.5;" x1="1549" x2="1635.9102" y1="167.1348" y2="167.1348"/><text fill="#000000" font-family="sans-serif" font-size="14" font-weight="bold" lengthAdjust="spacing" textLength="73.9102" x="1553" y="159.6211">commands</text></g><!--cluster parsers--><g id="cluster_parsers"><path d="M2903.5,187.5137 L2955.0928,187.5137 A3.75,3.75 0 0 1 2957.5928,190.0137 L2964.5928,212.1348 L3200.5,212.1348 A2.5,2.5 0 0 1 3203,214.6348 L3203,570.5137 A2.5,2.5 0 0 1 3200.5,573.0137 L2903.5,573.0137 A2.5,2.5 0 0 1 2901,570.5137 L2901,190.0137 A2.5,2.5 0 0 1 2903.5,187.5137 " fill="none" style="stroke:#000000;stroke-width:1.5;"/><line style="stroke:#000000;stroke-width:1.5;" x1="2901" x2="2964.5928" y1="212.1348" y2="212.1348"/><text fill="#000000" font-family="sans-serif" font-size="14" font-weight="bold" lengthAdjust="spacing" textLength="50.5928" x="2905" y="204.6211">parsers</text></g><!--cluster controllers--><g id="cluster_controllers"><path d="M1169.5,187.5137 L1242.8516,187.5137 A3.75,3.75 0 0 1 1245.3516,190.0137 L1252.3516,212.1348 L1522.5,212.1348 A2.5,2.5 0 0 1 1525,214.6348 L1525,617.0137 A2.5,2.5 0 0 1 1522.5,619.5137 L1169.5,619.5137 A2.5,2.5 0 0 1 1167,617.0137 L1167,190.0137 A2.5,2.5 0 0 1 1169.5,187.5137 " fill="none" style="stroke:#000000;stroke-width:1.5;"/><line style="stroke:#000000;stroke-width:1.5;" x1="1167" x2="1252.3516" y1="212.1348" y2="212.1348"/><text fill="#000000" font-family="sans-serif" font-size="14" font-weight="bold" lengthAdjust="spacing" textLength="72.3516" x="1171" y="204.6211">controllers</text></g><!--cluster interfaces--><g id="cluster_interfaces"><path d="M488.5,187.5137 L555.6445,187.5137 A3.75,3.75 0 0 1 558.1445,190.0137 L565.1445,212.1348 L1140.5,212.1348 A2.5,2.5 0 0 1 1143,214.6348 L1143,911.0137 A2.5,2.5 0 0 1 1140.5,913.5137 L488.5,913.5137 A2.5,2.5 0 0 1 486,911.0137 L486,190.0137 A2.5,2.5 0 0 1 488.5,187.5137 " fill="none" style="stroke:#000000;stroke-width:1.5;"/><line style="stroke:#000000;stroke-width:1.5;" x1="486" x2="565.1445" y1="212.1348" y2="212.1348"/><text fill="#000000" font-family="sans-serif" font-size="14" font-weight="bold" lengthAdjust="spacing" textLength="66.1445" x="490" y="204.6211">interfaces</text></g><!--cluster sun--><g id="cluster_sun"><path d="M32.5,354.0137 L58.3896,354.0137 A3.75,3.75 0 0 1 60.8896,356.5137 L67.8896,378.6348 L263.5,378.6348 A2.5,2.5 0 0 1 266,381.1348 L266,590.5137 A2.5,2.5 0 0 1 263.5,593.0137 L32.5,593.0137 A2.5,2.5 0 0 1 30,590.5137 L30,356.5137 A2.5,2.5 0 0 1 32.5,354.0137 " fill="none" style="stroke:#000000;stroke-width:1.5;"/><line style="stroke:#000000;stroke-width:1.5;" x1="30" x2="67.8896" y1="378.6348" y2="378.6348"/><text fill="#000000" font-family="sans-serif" font-size="14" font-weight="bold" lengthAdjust="spacing" textLength="24.8896" x="34" y="371.1211">sun</text></g><!--cluster net--><g id="cluster_net"><path d="M56.5,399.0137 L78.5,399.0137 A3.75,3.75 0 0 1 81,401.5137 L88,423.6348 L239.5,423.6348 A2.5,2.5 0 0 1 242,426.1348 L242,566.5137 A2.5,2.5 0 0 1 239.5,569.0137 L56.5,569.0137 A2.5,2.5 0 0 1 54,566.5137 L54,401.5137 A2.5,2.5 0 0 1 56.5,399.0137 " fill="none" style="stroke:#000000;stroke-width:1.5;"/><line style="stroke:#000000;stroke-width:1.5;" x1="54" x2="88" y1="423.6348" y2="423.6348"/><text fill="#000000" font-family="sans-serif" font-size="14" font-weight="bold" lengthAdjust="spacing" textLength="21" x="58" y="416.1211">net</text></g><!--cluster httpserver--><g id="cluster_httpserver"><path d="M80.5,444.0137 L149.9688,444.0137 A3.75,3.75 0 0 1 152.4688,446.5137 L159.4688,468.6348 L215.5,468.6348 A2.5,2.5 0 0 1 218,471.1348 L218,542.5137 A2.5,2.5 0 0 1 215.5,545.0137 L80.5,545.0137 A2.5,2.5 0 0 1 78,542.5137 L78,446.5137 A2.5,2.5 0 0 1 80.5,444.0137 " fill="none" style="stroke:#000000;stroke-width:1.5;"/><line style="stroke:#000000;stroke-width:1.5;" x1="78" x2="159.4688" y1="468.6348" y2="468.6348"/><text fill="#000000" font-family="sans-serif" font-size="14" font-weight="bold" lengthAdjust="spacing" textLength="68.4688" x="82" y="461.1211">httpserver</text></g><!--class ExplorerApp--><g id="elem_ExplorerApp"><rect codeLine="33" fill="#F1F1F1" height="85.2422" id="ExplorerApp" rx="2.5" ry="2.5" style="stroke:#181818;stroke-width:0.5;" width="139.5928" x="330" y="215.5137"/><ellipse cx="358.7483" cy="231.5137" fill="#ADD1B2" rx="11" ry="11" style="stroke:#181818;stroke-width:1.0;"/><path d="M361.5139,227.3887 Q361.6702,227.1699 361.8577,227.0605 Q362.0452,226.9512 362.2639,226.9512 Q362.6389,226.9512 362.8733,227.2168 Q363.1077,227.4668 363.1077,228.0762 L363.1077,229.5293 Q363.1077,230.1387 362.8733,230.4043 Q362.6389,230.6699 362.2639,230.6699 Q361.9202,230.6699 361.717,230.4668 Q361.5139,230.2793 361.4045,229.7637 Q361.3577,229.4043 361.1702,229.2168 Q360.842,228.8418 360.2327,228.623 Q359.6233,228.4043 358.9983,228.4043 Q358.2327,228.4043 357.592,228.7324 Q356.967,229.0605 356.467,229.8105 Q355.9827,230.5605 355.9827,231.5918 L355.9827,232.6855 Q355.9827,233.9199 356.8733,234.748 Q357.7639,235.5605 359.3577,235.5605 Q360.2952,235.5605 360.9514,235.3105 Q361.342,235.1543 361.7639,234.7168 Q362.0295,234.4512 362.1702,234.373 Q362.3264,234.2949 362.5295,234.2949 Q362.8577,234.2949 363.1077,234.5605 Q363.3733,234.8105 363.3733,235.1543 Q363.3733,235.498 363.0295,235.9043 Q362.5295,236.4824 361.7327,236.8105 Q360.6545,237.2637 359.3577,237.2637 Q357.842,237.2637 356.6389,236.6387 Q355.6545,236.1387 354.967,235.0762 Q354.2795,233.998 354.2795,232.7168 L354.2795,231.5605 Q354.2795,230.2324 354.8889,229.0918 Q355.5139,227.9355 356.6077,227.3262 Q357.7014,226.7012 358.9358,226.7012 Q359.6702,226.7012 360.3108,226.873 Q360.967,227.0293 361.5139,227.3887 Z " fill="#000000"/><text fill="#000000" font-family="sans-serif" font-size="14" lengthAdjust="spacing" textLength="77.041" x="375.8035" y="237.3105">ExplorerApp</text><line style="stroke:#181818;stroke-width:0.5;" x1="331" x2="468.5928" y1="247.5137" y2="247.5137"/><line style="stroke:#181818;stroke-width:0.5;" x1="331" x2="468.5928" y1="255.5137" y2="255.5137"/><ellipse cx="341" cy="270.3242" fill="#84BE84" rx="3" ry="3" style="stroke:#038048;stroke-width:1.0;"/><text fill="#000000" font-family="sans-serif" font-size="14" lengthAdjust="spacing" text-decoration="underline" textLength="94.9238" x="350" y="274.6211">void printHelp()</text><ellipse cx="341" cy="288.9453" fill="#84BE84" rx="3" ry="3" style="stroke:#038048;stroke-width:1.0;"/><text fill="#000000" font-family="sans-serif" font-size="14" lengthAdjust="spacing" text-decoration="underline" textLength="113.5928" x="350" y="293.2422">void main(String[])</text></g><!--class FileInode--><g id="elem_FileInode"><rect codeLine="1" fill="#F1F1F1" height="103.8633" id="FileInode" rx="2.5" ry="2.5" style="stroke:#181818;stroke-width:0.5;" width="190.9717" x="3267.5" y="453.0137"/><ellipse cx="3329.9395" cy="469.0137" fill="#ADD1B2" rx="11" ry="11" style="stroke:#181818;stroke-width:1.0;"/><path d="M3332.7051,464.8887 Q3332.8613,464.6699 3333.0488,464.5605 Q3333.2363,464.4512 3333.4551,464.4512 Q3333.8301,464.4512 3334.0645,464.7168 Q3334.2988,464.9668 3334.2988,465.5762 L3334.2988,467.0293 Q3334.2988,467.6387 3334.0645,467.9043 Q3333.8301,468.1699 3333.4551,468.1699 Q3333.1113,468.1699 3332.9082,467.9668 Q3332.7051,467.7793 3332.5957,467.2637 Q3332.5488,466.9043 3332.3613,466.7168 Q3332.0332,466.3418 3331.4238,466.123 Q3330.8145,465.9043 3330.1895,465.9043 Q3329.4238,465.9043 3328.7832,466.2324 Q3328.1582,466.5605 3327.6582,467.3105 Q3327.1738,468.0605 3327.1738,469.0918 L3327.1738,470.1855 Q3327.1738,471.4199 3328.0645,472.248 Q3328.9551,473.0605 3330.5488,473.0605 Q3331.4863,473.0605 3332.1426,472.8105 Q3332.5332,472.6543 3332.9551,472.2168 Q3333.2207,471.9512 3333.3613,471.873 Q3333.5176,471.7949 3333.7207,471.7949 Q3334.0488,471.7949 3334.2988,472.0605 Q3334.5645,472.3105 3334.5645,472.6543 Q3334.5645,472.998 3334.2207,473.4043 Q3333.7207,473.9824 3332.9238,474.3105 Q3331.8457,474.7637 3330.5488,474.7637 Q3329.0332,474.7637 3327.8301,474.1387 Q3326.8457,473.6387 3326.1582,472.5762 Q3325.4707,471.498 3325.4707,470.2168 L3325.4707,469.0605 Q3325.4707,467.7324 3326.0801,466.5918 Q3326.7051,465.4355 3327.7988,464.8262 Q3328.8926,464.2012 3330.127,464.2012 Q3330.8613,464.2012 3331.502,464.373 Q3332.1582,464.5293 3332.7051,464.8887 Z " fill="#000000"/><text fill="#000000" font-family="sans-serif" font-size="14" lengthAdjust="spacing" textLength="57.5928" x="3350.4395" y="474.8105">FileInode</text><line style="stroke:#181818;stroke-width:0.5;" x1="3268.5" x2="3457.4717" y1="485.0137" y2="485.0137"/><rect fill="none" height="6" style="stroke:#C82930;stroke-width:1.0;" width="6" x="3275.5" y="496.8242"/><text fill="#000000" font-family="sans-serif" font-size="14" lengthAdjust="spacing" textLength="43.5723" x="3287.5" y="504.1211">int size</text><line style="stroke:#181818;stroke-width:0.5;" x1="3268.5" x2="3457.4717" y1="511.6348" y2="511.6348"/><ellipse cx="3278.5" cy="526.4453" fill="#84BE84" rx="3" ry="3" style="stroke:#038048;stroke-width:1.0;"/><text fill="#000000" font-family="sans-serif" font-size="14" lengthAdjust="spacing" textLength="164.9717" x="3287.5" y="530.7422">&#171;Create&#187; FileInode(String)</text><ellipse cx="3278.5" cy="545.0664" fill="#84BE84" rx="3" ry="3" style="stroke:#038048;stroke-width:1.0;"/><text fill="#000000" font-family="sans-serif" font-size="14" lengthAdjust="spacing" textLength="74.6963" x="3287.5" y="549.3633">int getSize()</text></g><!--class Inode--><g id="elem_Inode"><rect codeLine="21" fill="#F1F1F1" height="159.7266" id="Inode" rx="2.5" ry="2.5" style="stroke:#181818;stroke-width:0.5;" width="174.6406" x="3401.5" y="178.0137"/><ellipse cx="3467.0532" cy="194.0137" fill="#A9DCDF" rx="11" ry="11" style="stroke:#181818;stroke-width:1.0;"/><path d="M3469.2407,195.7793 L3465.1001,195.7793 L3464.6782,196.8105 L3465.1001,196.8105 Q3465.7095,196.8105 3465.9751,197.0449 Q3466.2407,197.2793 3466.2407,197.6699 Q3466.2407,198.0449 3465.9751,198.2793 Q3465.7095,198.5137 3465.1001,198.5137 L3462.8032,198.5137 Q3462.1938,198.5137 3461.9438,198.2793 Q3461.6782,198.0449 3461.6782,197.6543 Q3461.6782,197.2793 3461.9595,197.0449 Q3462.2251,196.7949 3462.8501,196.8105 L3465.522,190.1543 L3464.4126,190.1543 Q3463.8032,190.1543 3463.5376,189.9199 Q3463.272,189.6855 3463.272,189.2949 Q3463.272,188.9199 3463.5376,188.6855 Q3463.8032,188.4512 3464.4126,188.4512 L3468.0845,188.4512 L3471.4751,196.8105 Q3472.0688,196.8105 3472.2563,196.9512 Q3472.647,197.2168 3472.647,197.6699 Q3472.647,198.0449 3472.3813,198.2793 Q3472.1313,198.5137 3471.522,198.5137 L3469.2251,198.5137 Q3468.6157,198.5137 3468.3501,198.2793 Q3468.0845,198.0449 3468.0845,197.6543 Q3468.0845,197.2793 3468.3501,197.0449 Q3468.6157,196.8105 3469.2251,196.8105 L3469.647,196.8105 L3469.2407,195.7793 Z M3468.522,194.0762 L3467.1626,190.7012 L3465.7876,194.0762 L3468.522,194.0762 Z " fill="#000000"/><text fill="#000000" font-family="sans-serif" font-size="14" font-style="italic" lengthAdjust="spacing" textLength="35.0342" x="3487.5532" y="199.8105">Inode</text><line style="stroke:#181818;stroke-width:0.5;" x1="3402.5" x2="3575.1406" y1="210.0137" y2="210.0137"/><rect fill="none" height="6" style="stroke:#C82930;stroke-width:1.0;" width="6" x="3409.5" y="221.8242"/><text fill="#000000" font-family="sans-serif" font-size="14" lengthAdjust="spacing" textLength="75.4824" x="3421.5" y="229.1211">String name</text><polygon fill="none" points="3412.5,238.4453,3416.5,242.4453,3412.5,246.4453,3408.5,242.4453" style="stroke:#B38D22;stroke-width:1.0;"/><text fill="#000000" font-family="sans-serif" font-size="14" lengthAdjust="spacing" textLength="118.3027" x="3421.5" y="247.7422">FolderInode parent</text><line style="stroke:#181818;stroke-width:0.5;" x1="3402.5" x2="3575.1406" y1="255.2559" y2="255.2559"/><ellipse cx="3412.5" cy="270.0664" fill="#84BE84" rx="3" ry="3" style="stroke:#038048;stroke-width:1.0;"/><text fill="#000000" font-family="sans-serif" font-size="14" lengthAdjust="spacing" textLength="142.4131" x="3421.5" y="274.3633">&#171;Create&#187; Inode(String)</text><ellipse cx="3412.5" cy="288.6875" fill="#84BE84" rx="3" ry="3" style="stroke:#038048;stroke-width:1.0;"/><text fill="#000000" font-family="sans-serif" font-size="14" lengthAdjust="spacing" textLength="106.5928" x="3421.5" y="292.9844">String getName()</text><ellipse cx="3412.5" cy="307.3086" fill="#84BE84" rx="3" ry="3" style="stroke:#038048;stroke-width:1.0;"/><text fill="#000000" font-family="sans-serif" font-size="14" lengthAdjust="spacing" textLength="148.6406" x="3421.5" y="311.6055">FolderInode getParent()</text><ellipse cx="3412.5" cy="325.9297" fill="#84BE84" rx="3" ry="3" style="stroke:#038048;stroke-width:1.0;"/><text fill="#000000" font-family="sans-serif" font-size="14" font-style="italic" lengthAdjust="spacing" textLength="74.6963" x="3421.5" y="330.2266">int getSize()</text></g><!--class FolderInode--><g id="elem_FolderInode"><rect codeLine="84" fill="#F1F1F1" height="159.7266" id="FolderInode" rx="2.5" ry="2.5" style="stroke:#181818;stroke-width:0.5;" width="244.6816" x="3493.5" y="425.0137"/><ellipse cx="3574.2324" cy="441.0137" fill="#ADD1B2" rx="11" ry="11" style="stroke:#181818;stroke-width:1.0;"/><path d="M3576.998,436.8887 Q3577.1543,436.6699 3577.3418,436.5605 Q3577.5293,436.4512 3577.748,436.4512 Q3578.123,436.4512 3578.3574,436.7168 Q3578.5918,436.9668 3578.5918,437.5762 L3578.5918,439.0293 Q3578.5918,439.6387 3578.3574,439.9043 Q3578.123,440.1699 3577.748,440.1699 Q3577.4043,440.1699 3577.2012,439.9668 Q3576.998,439.7793 3576.8887,439.2637 Q3576.8418,438.9043 3576.6543,438.7168 Q3576.3262,438.3418 3575.7168,438.123 Q3575.1074,437.9043 3574.4824,437.9043 Q3573.7168,437.9043 3573.0762,438.2324 Q3572.4512,438.5605 3571.9512,439.3105 Q3571.4668,440.0605 3571.4668,441.0918 L3571.4668,442.1855 Q3571.4668,443.4199 3572.3574,444.248 Q3573.248,445.0605 3574.8418,445.0605 Q3575.7793,445.0605 3576.4355,444.8105 Q3576.8262,444.6543 3577.248,444.2168 Q3577.5137,443.9512 3577.6543,443.873 Q3577.8105,443.7949 3578.0137,443.7949 Q3578.3418,443.7949 3578.5918,444.0605 Q3578.8574,444.3105 3578.8574,444.6543 Q3578.8574,444.998 3578.5137,445.4043 Q3578.0137,445.9824 3577.2168,446.3105 Q3576.1387,446.7637 3574.8418,446.7637 Q3573.3262,446.7637 3572.123,446.1387 Q3571.1387,445.6387 3570.4512,444.5762 Q3569.7637,443.498 3569.7637,442.2168 L3569.7637,441.0605 Q3569.7637,439.7324 3570.373,438.5918 Q3570.998,437.4355 3572.0918,436.8262 Q3573.1855,436.2012 3574.4199,436.2012 Q3575.1543,436.2012 3575.7949,436.373 Q3576.4512,436.5293 3576.998,436.8887 Z " fill="#000000"/><text fill="#000000" font-family="sans-serif" font-size="14" lengthAdjust="spacing" textLength="74.7168" x="3594.7324" y="446.8105">FolderInode</text><line style="stroke:#181818;stroke-width:0.5;" x1="3494.5" x2="3737.1816" y1="457.0137" y2="457.0137"/><rect fill="none" height="6" style="stroke:#C82930;stroke-width:1.0;" width="6" x="3501.5" y="468.8242"/><text fill="#000000" font-family="sans-serif" font-size="14" lengthAdjust="spacing" textLength="174.3438" x="3513.5" y="476.1211">LinkedList&lt;Inode&gt; childrens</text><line style="stroke:#181818;stroke-width:0.5;" x1="3494.5" x2="3737.1816" y1="483.6348" y2="483.6348"/><ellipse cx="3504.5" cy="498.4453" fill="#84BE84" rx="3" ry="3" style="stroke:#038048;stroke-width:1.0;"/><text fill="#000000" font-family="sans-serif" font-size="14" lengthAdjust="spacing" textLength="182.0957" x="3513.5" y="502.7422">&#171;Create&#187; FolderInode(String)</text><ellipse cx="3504.5" cy="517.0664" fill="#84BE84" rx="3" ry="3" style="stroke:#038048;stroke-width:1.0;"/><text fill="#000000" font-family="sans-serif" font-size="14" lengthAdjust="spacing" textLength="156.4678" x="3513.5" y="521.3633">boolean addInode(Inode)</text><ellipse cx="3504.5" cy="535.6875" fill="#84BE84" rx="3" ry="3" style="stroke:#038048;stroke-width:1.0;"/><text fill="#000000" font-family="sans-serif" font-size="14" lengthAdjust="spacing" textLength="206.2402" x="3513.5" y="539.9844">LinkedList&lt;Inode&gt; getChildrens()</text><ellipse cx="3504.5" cy="554.3086" fill="#84BE84" rx="3" ry="3" style="stroke:#038048;stroke-width:1.0;"/><text fill="#000000" font-family="sans-serif" font-size="14" lengthAdjust="spacing" textLength="74.6963" x="3513.5" y="558.6055">int getSize()</text><ellipse cx="3504.5" cy="572.9297" fill="#84BE84" rx="3" ry="3" style="stroke:#038048;stroke-width:1.0;"/><text fill="#000000" font-family="sans-serif" font-size="14" lengthAdjust="spacing" textLength="218.6816" x="3513.5" y="577.2266">FolderInode getFolderInode(String)</text></g><!--class ChangeDirectoryCommand--><g id="elem_ChangeDirectoryCommand"><rect codeLine="8" fill="#F1F1F1" height="103.8633" id="ChangeDirectoryCommand" rx="2.5" ry="2.5" style="stroke:#181818;stroke-width:0.5;" width="303.0059" x="1565.5" y="453.0137"/><ellipse cx="1627.9395" cy="469.0137" fill="#ADD1B2" rx="11" ry="11" style="stroke:#181818;stroke-width:1.0;"/><path d="M1630.7051,464.8887 Q1630.8613,464.6699 1631.0488,464.5605 Q1631.2363,464.4512 1631.4551,464.4512 Q1631.8301,464.4512 1632.0645,464.7168 Q1632.2988,464.9668 1632.2988,465.5762 L1632.2988,467.0293 Q1632.2988,467.6387 1632.0645,467.9043 Q1631.8301,468.1699 1631.4551,468.1699 Q1631.1113,468.1699 1630.9082,467.9668 Q1630.7051,467.7793 1630.5957,467.2637 Q1630.5488,466.9043 1630.3613,466.7168 Q1630.0332,466.3418 1629.4238,466.123 Q1628.8145,465.9043 1628.1895,465.9043 Q1627.4238,465.9043 1626.7832,466.2324 Q1626.1582,466.5605 1625.6582,467.3105 Q1625.1738,468.0605 1625.1738,469.0918 L1625.1738,470.1855 Q1625.1738,471.4199 1626.0645,472.248 Q1626.9551,473.0605 1628.5488,473.0605 Q1629.4863,473.0605 1630.1426,472.8105 Q1630.5332,472.6543 1630.9551,472.2168 Q1631.2207,471.9512 1631.3613,471.873 Q1631.5176,471.7949 1631.7207,471.7949 Q1632.0488,471.7949 1632.2988,472.0605 Q1632.5645,472.3105 1632.5645,472.6543 Q1632.5645,472.998 1632.2207,473.4043 Q1631.7207,473.9824 1630.9238,474.3105 Q1629.8457,474.7637 1628.5488,474.7637 Q1627.0332,474.7637 1625.8301,474.1387 Q1624.8457,473.6387 1624.1582,472.5762 Q1623.4707,471.498 1623.4707,470.2168 L1623.4707,469.0605 Q1623.4707,467.7324 1624.0801,466.5918 Q1624.7051,465.4355 1625.7988,464.8262 Q1626.8926,464.2012 1628.127,464.2012 Q1628.8613,464.2012 1629.502,464.373 Q1630.1582,464.5293 1630.7051,464.8887 Z " fill="#000000"/><text fill="#000000" font-family="sans-serif" font-size="14" lengthAdjust="spacing" textLength="169.627" x="1648.4395" y="474.8105">ChangeDirectoryCommand</text><line style="stroke:#181818;stroke-width:0.5;" x1="1566.5" x2="1867.5059" y1="485.0137" y2="485.0137"/><rect fill="none" height="6" style="stroke:#C82930;stroke-width:1.0;" width="6" x="1573.5" y="496.8242"/><text fill="#000000" font-family="sans-serif" font-size="14" lengthAdjust="spacing" textLength="67.71" x="1585.5" y="504.1211">String path</text><line style="stroke:#181818;stroke-width:0.5;" x1="1566.5" x2="1867.5059" y1="511.6348" y2="511.6348"/><ellipse cx="1576.5" cy="526.4453" fill="#84BE84" rx="3" ry="3" style="stroke:#038048;stroke-width:1.0;"/><text fill="#000000" font-family="sans-serif" font-size="14" lengthAdjust="spacing" textLength="277.0059" x="1585.5" y="530.7422">&#171;Create&#187; ChangeDirectoryCommand(String)</text><ellipse cx="1576.5" cy="545.0664" fill="#84BE84" rx="3" ry="3" style="stroke:#038048;stroke-width:1.0;"/><text fill="#000000" font-family="sans-serif" font-size="14" lengthAdjust="spacing" textLength="98.0479" x="1585.5" y="549.3633">String getPath()</text></g><!--class ListCommand--><g id="elem_ListCommand"><rect codeLine="15" fill="#F1F1F1" height="48" id="ListCommand" rx="2.5" ry="2.5" style="stroke:#181818;stroke-width:0.5;" width="118.3652" x="1904" y="481.0137"/><ellipse cx="1919" cy="497.0137" fill="#ADD1B2" rx="11" ry="11" style="stroke:#181818;stroke-width:1.0;"/><path d="M1921.7656,492.8887 Q1921.9219,492.6699 1922.1094,492.5605 Q1922.2969,492.4512 1922.5156,492.4512 Q1922.8906,492.4512 1923.125,492.7168 Q1923.3594,492.9668 1923.3594,493.5762 L1923.3594,495.0293 Q1923.3594,495.6387 1923.125,495.9043 Q1922.8906,496.1699 1922.5156,496.1699 Q1922.1719,496.1699 1921.9688,495.9668 Q1921.7656,495.7793 1921.6563,495.2637 Q1921.6094,494.9043 1921.4219,494.7168 Q1921.0938,494.3418 1920.4844,494.123 Q1919.875,493.9043 1919.25,493.9043 Q1918.4844,493.9043 1917.8438,494.2324 Q1917.2188,494.5605 1916.7188,495.3105 Q1916.2344,496.0605 1916.2344,497.0918 L1916.2344,498.1855 Q1916.2344,499.4199 1917.125,500.248 Q1918.0156,501.0605 1919.6094,501.0605 Q1920.5469,501.0605 1921.2031,500.8105 Q1921.5938,500.6543 1922.0156,500.2168 Q1922.2813,499.9512 1922.4219,499.873 Q1922.5781,499.7949 1922.7813,499.7949 Q1923.1094,499.7949 1923.3594,500.0605 Q1923.625,500.3105 1923.625,500.6543 Q1923.625,500.998 1923.2813,501.4043 Q1922.7813,501.9824 1921.9844,502.3105 Q1920.9063,502.7637 1919.6094,502.7637 Q1918.0938,502.7637 1916.8906,502.1387 Q1915.9063,501.6387 1915.2188,500.5762 Q1914.5313,499.498 1914.5313,498.2168 L1914.5313,497.0605 Q1914.5313,495.7324 1915.1406,494.5918 Q1915.7656,493.4355 1916.8594,492.8262 Q1917.9531,492.2012 1919.1875,492.2012 Q1919.9219,492.2012 1920.5625,492.373 Q1921.2188,492.5293 1921.7656,492.8887 Z " fill="#000000"/><text fill="#000000" font-family="sans-serif" font-size="14" lengthAdjust="spacing" textLength="86.3652" x="1933" y="502.8105">ListCommand</text><line style="stroke:#181818;stroke-width:0.5;" x1="1905" x2="2021.3652" y1="513.0137" y2="513.0137"/><line style="stroke:#181818;stroke-width:0.5;" x1="1905" x2="2021.3652" y1="521.0137" y2="521.0137"/></g><!--class Command--><g id="elem_Command"><rect codeLine="31" fill="#F1F1F1" height="48" id="Command" rx="2.5" ry="2.5" style="stroke:#181818;stroke-width:0.5;" width="96.5791" x="2127.5" y="234.0137"/><ellipse cx="2142.5" cy="250.0137" fill="#A9DCDF" rx="11" ry="11" style="stroke:#181818;stroke-width:1.0;"/><path d="M2144.6875,251.7793 L2140.5469,251.7793 L2140.125,252.8105 L2140.5469,252.8105 Q2141.1563,252.8105 2141.4219,253.0449 Q2141.6875,253.2793 2141.6875,253.6699 Q2141.6875,254.0449 2141.4219,254.2793 Q2141.1563,254.5137 2140.5469,254.5137 L2138.25,254.5137 Q2137.6406,254.5137 2137.3906,254.2793 Q2137.125,254.0449 2137.125,253.6543 Q2137.125,253.2793 2137.4063,253.0449 Q2137.6719,252.7949 2138.2969,252.8105 L2140.9688,246.1543 L2139.8594,246.1543 Q2139.25,246.1543 2138.9844,245.9199 Q2138.7188,245.6855 2138.7188,245.2949 Q2138.7188,244.9199 2138.9844,244.6855 Q2139.25,244.4512 2139.8594,244.4512 L2143.5313,244.4512 L2146.9219,252.8105 Q2147.5156,252.8105 2147.7031,252.9512 Q2148.0938,253.2168 2148.0938,253.6699 Q2148.0938,254.0449 2147.8281,254.2793 Q2147.5781,254.5137 2146.9688,254.5137 L2144.6719,254.5137 Q2144.0625,254.5137 2143.7969,254.2793 Q2143.5313,254.0449 2143.5313,253.6543 Q2143.5313,253.2793 2143.7969,253.0449 Q2144.0625,252.8105 2144.6719,252.8105 L2145.0938,252.8105 L2144.6875,251.7793 Z M2143.9688,250.0762 L2142.6094,246.7012 L2141.2344,250.0762 L2143.9688,250.0762 Z " fill="#000000"/><text fill="#000000" font-family="sans-serif" font-size="14" font-style="italic" lengthAdjust="spacing" textLength="64.5791" x="2156.5" y="255.8105">Command</text><line style="stroke:#181818;stroke-width:0.5;" x1="2128.5" x2="2223.0791" y1="266.0137" y2="266.0137"/><line style="stroke:#181818;stroke-width:0.5;" x1="2128.5" x2="2223.0791" y1="274.0137" y2="274.0137"/></g><!--class TouchCommand--><g id="elem_TouchCommand"><rect codeLine="44" fill="#F1F1F1" height="103.8633" id="TouchCommand" rx="2.5" ry="2.5" style="stroke:#181818;stroke-width:0.5;" width="236.8682" x="2057.5" y="453.0137"/><ellipse cx="2119.9395" cy="469.0137" fill="#ADD1B2" rx="11" ry="11" style="stroke:#181818;stroke-width:1.0;"/><path d="M2122.7051,464.8887 Q2122.8613,464.6699 2123.0488,464.5605 Q2123.2363,464.4512 2123.4551,464.4512 Q2123.8301,464.4512 2124.0645,464.7168 Q2124.2988,464.9668 2124.2988,465.5762 L2124.2988,467.0293 Q2124.2988,467.6387 2124.0645,467.9043 Q2123.8301,468.1699 2123.4551,468.1699 Q2123.1113,468.1699 2122.9082,467.9668 Q2122.7051,467.7793 2122.5957,467.2637 Q2122.5488,466.9043 2122.3613,466.7168 Q2122.0332,466.3418 2121.4238,466.123 Q2120.8145,465.9043 2120.1895,465.9043 Q2119.4238,465.9043 2118.7832,466.2324 Q2118.1582,466.5605 2117.6582,467.3105 Q2117.1738,468.0605 2117.1738,469.0918 L2117.1738,470.1855 Q2117.1738,471.4199 2118.0645,472.248 Q2118.9551,473.0605 2120.5488,473.0605 Q2121.4863,473.0605 2122.1426,472.8105 Q2122.5332,472.6543 2122.9551,472.2168 Q2123.2207,471.9512 2123.3613,471.873 Q2123.5176,471.7949 2123.7207,471.7949 Q2124.0488,471.7949 2124.2988,472.0605 Q2124.5645,472.3105 2124.5645,472.6543 Q2124.5645,472.998 2124.2207,473.4043 Q2123.7207,473.9824 2122.9238,474.3105 Q2121.8457,474.7637 2120.5488,474.7637 Q2119.0332,474.7637 2117.8301,474.1387 Q2116.8457,473.6387 2116.1582,472.5762 Q2115.4707,471.498 2115.4707,470.2168 L2115.4707,469.0605 Q2115.4707,467.7324 2116.0801,466.5918 Q2116.7051,465.4355 2117.7988,464.8262 Q2118.8926,464.2012 2120.127,464.2012 Q2120.8613,464.2012 2121.502,464.373 Q2122.1582,464.5293 2122.7051,464.8887 Z " fill="#000000"/><text fill="#000000" font-family="sans-serif" font-size="14" lengthAdjust="spacing" textLength="103.4893" x="2140.4395" y="474.8105">TouchCommand</text><line style="stroke:#181818;stroke-width:0.5;" x1="2058.5" x2="2293.3682" y1="485.0137" y2="485.0137"/><rect fill="none" height="6" style="stroke:#C82930;stroke-width:1.0;" width="6" x="2065.5" y="496.8242"/><text fill="#000000" font-family="sans-serif" font-size="14" lengthAdjust="spacing" textLength="95.7031" x="2077.5" y="504.1211">String fileName</text><line style="stroke:#181818;stroke-width:0.5;" x1="2058.5" x2="2293.3682" y1="511.6348" y2="511.6348"/><ellipse cx="2068.5" cy="526.4453" fill="#84BE84" rx="3" ry="3" style="stroke:#038048;stroke-width:1.0;"/><text fill="#000000" font-family="sans-serif" font-size="14" lengthAdjust="spacing" textLength="210.8682" x="2077.5" y="530.7422">&#171;Create&#187; TouchCommand(String)</text><ellipse cx="2068.5" cy="545.0664" fill="#84BE84" rx="3" ry="3" style="stroke:#038048;stroke-width:1.0;"/><text fill="#000000" font-family="sans-serif" font-size="14" lengthAdjust="spacing" textLength="129.1514" x="2077.5" y="549.3633">String getFileName()</text></g><!--class ErrorCommand--><g id="elem_ErrorCommand"><rect codeLine="65" fill="#F1F1F1" height="103.8633" id="ErrorCommand" rx="2.5" ry="2.5" style="stroke:#181818;stroke-width:0.5;" width="229.0684" x="2329.5" y="453.0137"/><ellipse cx="2391.9395" cy="469.0137" fill="#ADD1B2" rx="11" ry="11" style="stroke:#181818;stroke-width:1.0;"/><path d="M2394.7051,464.8887 Q2394.8613,464.6699 2395.0488,464.5605 Q2395.2363,464.4512 2395.4551,464.4512 Q2395.8301,464.4512 2396.0645,464.7168 Q2396.2988,464.9668 2396.2988,465.5762 L2396.2988,467.0293 Q2396.2988,467.6387 2396.0645,467.9043 Q2395.8301,468.1699 2395.4551,468.1699 Q2395.1113,468.1699 2394.9082,467.9668 Q2394.7051,467.7793 2394.5957,467.2637 Q2394.5488,466.9043 2394.3613,466.7168 Q2394.0332,466.3418 2393.4238,466.123 Q2392.8145,465.9043 2392.1895,465.9043 Q2391.4238,465.9043 2390.7832,466.2324 Q2390.1582,466.5605 2389.6582,467.3105 Q2389.1738,468.0605 2389.1738,469.0918 L2389.1738,470.1855 Q2389.1738,471.4199 2390.0645,472.248 Q2390.9551,473.0605 2392.5488,473.0605 Q2393.4863,473.0605 2394.1426,472.8105 Q2394.5332,472.6543 2394.9551,472.2168 Q2395.2207,471.9512 2395.3613,471.873 Q2395.5176,471.7949 2395.7207,471.7949 Q2396.0488,471.7949 2396.2988,472.0605 Q2396.5645,472.3105 2396.5645,472.6543 Q2396.5645,472.998 2396.2207,473.4043 Q2395.7207,473.9824 2394.9238,474.3105 Q2393.8457,474.7637 2392.5488,474.7637 Q2391.0332,474.7637 2389.8301,474.1387 Q2388.8457,473.6387 2388.1582,472.5762 Q2387.4707,471.498 2387.4707,470.2168 L2387.4707,469.0605 Q2387.4707,467.7324 2388.0801,466.5918 Q2388.7051,465.4355 2389.7988,464.8262 Q2390.8926,464.2012 2392.127,464.2012 Q2392.8613,464.2012 2393.502,464.373 Q2394.1582,464.5293 2394.7051,464.8887 Z " fill="#000000"/><text fill="#000000" font-family="sans-serif" font-size="14" lengthAdjust="spacing" textLength="95.6895" x="2412.4395" y="474.8105">ErrorCommand</text><line style="stroke:#181818;stroke-width:0.5;" x1="2330.5" x2="2557.5684" y1="485.0137" y2="485.0137"/><rect fill="none" height="6" style="stroke:#C82930;stroke-width:1.0;" width="6" x="2337.5" y="496.8242"/><text fill="#000000" font-family="sans-serif" font-size="14" lengthAdjust="spacing" textLength="97.2686" x="2349.5" y="504.1211">String message</text><line style="stroke:#181818;stroke-width:0.5;" x1="2330.5" x2="2557.5684" y1="511.6348" y2="511.6348"/><ellipse cx="2340.5" cy="526.4453" fill="#84BE84" rx="3" ry="3" style="stroke:#038048;stroke-width:1.0;"/><text fill="#000000" font-family="sans-serif" font-size="14" lengthAdjust="spacing" textLength="203.0684" x="2349.5" y="530.7422">&#171;Create&#187; ErrorCommand(String)</text><ellipse cx="2340.5" cy="545.0664" fill="#84BE84" rx="3" ry="3" style="stroke:#038048;stroke-width:1.0;"/><text fill="#000000" font-family="sans-serif" font-size="14" lengthAdjust="spacing" textLength="126.0547" x="2349.5" y="549.3633">String getMessage()</text></g><!--class MakeDirectoryCommand--><g id="elem_MakeDirectoryCommand"><rect codeLine="94" fill="#F1F1F1" height="103.8633" id="MakeDirectoryCommand" rx="2.5" ry="2.5" style="stroke:#181818;stroke-width:0.5;" width="288.1992" x="2594" y="453.0137"/><ellipse cx="2656.4395" cy="469.0137" fill="#ADD1B2" rx="11" ry="11" style="stroke:#181818;stroke-width:1.0;"/><path d="M2659.2051,464.8887 Q2659.3613,464.6699 2659.5488,464.5605 Q2659.7363,464.4512 2659.9551,464.4512 Q2660.3301,464.4512 2660.5645,464.7168 Q2660.7988,464.9668 2660.7988,465.5762 L2660.7988,467.0293 Q2660.7988,467.6387 2660.5645,467.9043 Q2660.3301,468.1699 2659.9551,468.1699 Q2659.6113,468.1699 2659.4082,467.9668 Q2659.2051,467.7793 2659.0957,467.2637 Q2659.0488,466.9043 2658.8613,466.7168 Q2658.5332,466.3418 2657.9238,466.123 Q2657.3145,465.9043 2656.6895,465.9043 Q2655.9238,465.9043 2655.2832,466.2324 Q2654.6582,466.5605 2654.1582,467.3105 Q2653.6738,468.0605 2653.6738,469.0918 L2653.6738,470.1855 Q2653.6738,471.4199 2654.5645,472.248 Q2655.4551,473.0605 2657.0488,473.0605 Q2657.9863,473.0605 2658.6426,472.8105 Q2659.0332,472.6543 2659.4551,472.2168 Q2659.7207,471.9512 2659.8613,471.873 Q2660.0176,471.7949 2660.2207,471.7949 Q2660.5488,471.7949 2660.7988,472.0605 Q2661.0645,472.3105 2661.0645,472.6543 Q2661.0645,472.998 2660.7207,473.4043 Q2660.2207,473.9824 2659.4238,474.3105 Q2658.3457,474.7637 2657.0488,474.7637 Q2655.5332,474.7637 2654.3301,474.1387 Q2653.3457,473.6387 2652.6582,472.5762 Q2651.9707,471.498 2651.9707,470.2168 L2651.9707,469.0605 Q2651.9707,467.7324 2652.5801,466.5918 Q2653.2051,465.4355 2654.2988,464.8262 Q2655.3926,464.2012 2656.627,464.2012 Q2657.3613,464.2012 2658.002,464.373 Q2658.6582,464.5293 2659.2051,464.8887 Z " fill="#000000"/><text fill="#000000" font-family="sans-serif" font-size="14" lengthAdjust="spacing" textLength="154.8203" x="2676.9395" y="474.8105">MakeDirectoryCommand</text><line style="stroke:#181818;stroke-width:0.5;" x1="2595" x2="2881.1992" y1="485.0137" y2="485.0137"/><rect fill="none" height="6" style="stroke:#C82930;stroke-width:1.0;" width="6" x="2602" y="496.8242"/><text fill="#000000" font-family="sans-serif" font-size="14" lengthAdjust="spacing" textLength="131.4893" x="2614" y="504.1211">String directoryName</text><line style="stroke:#181818;stroke-width:0.5;" x1="2595" x2="2881.1992" y1="511.6348" y2="511.6348"/><ellipse cx="2605" cy="526.4453" fill="#84BE84" rx="3" ry="3" style="stroke:#038048;stroke-width:1.0;"/><text fill="#000000" font-family="sans-serif" font-size="14" lengthAdjust="spacing" textLength="262.1992" x="2614" y="530.7422">&#171;Create&#187; MakeDirectoryCommand(String)</text><ellipse cx="2605" cy="545.0664" fill="#84BE84" rx="3" ry="3" style="stroke:#038048;stroke-width:1.0;"/><text fill="#000000" font-family="sans-serif" font-size="14" lengthAdjust="spacing" textLength="162.5996" x="2614" y="549.3633">String getDirectoryName()</text></g><!--class ICommandParser--><g id="elem_ICommandParser"><rect codeLine="101" fill="#F1F1F1" height="66.6211" id="ICommandParser" rx="2.5" ry="2.5" style="stroke:#181818;stroke-width:0.5;" width="175.3857" x="2964.5" y="224.5137"/><ellipse cx="2994.6572" cy="240.5137" fill="#B4A7E5" rx="11" ry="11" style="stroke:#181818;stroke-width:1.0;"/><path d="M2995.6103,237.1543 L2995.6103,243.8105 L2997.3291,243.8105 Q2997.9384,243.8105 2998.2041,244.0449 Q2998.4697,244.2793 2998.4697,244.6699 Q2998.4697,245.0449 2998.2041,245.2793 Q2997.9384,245.5137 2997.3291,245.5137 L2992.1884,245.5137 Q2991.5791,245.5137 2991.3134,245.2793 Q2991.0478,245.0449 2991.0478,244.6543 Q2991.0478,244.2793 2991.3134,244.0449 Q2991.5791,243.8105 2992.1884,243.8105 L2993.9072,243.8105 L2993.9072,237.1543 L2992.1884,237.1543 Q2991.5791,237.1543 2991.3134,236.9199 Q2991.0478,236.6855 2991.0478,236.2949 Q2991.0478,235.9199 2991.3134,235.6855 Q2991.5791,235.4512 2992.1884,235.4512 L2997.3291,235.4512 Q2997.9384,235.4512 2998.2041,235.6855 Q2998.4697,235.9199 2998.4697,236.2949 Q2998.4697,236.6855 2998.2041,236.9199 Q2997.9384,237.1543 2997.3291,237.1543 L2995.6103,237.1543 Z " fill="#000000"/><text fill="#000000" font-family="sans-serif" font-size="14" font-style="italic" lengthAdjust="spacing" textLength="109.7031" x="3012.0254" y="246.3105">ICommandParser</text><line style="stroke:#181818;stroke-width:0.5;" x1="2965.5" x2="3138.8857" y1="256.5137" y2="256.5137"/><line style="stroke:#181818;stroke-width:0.5;" x1="2965.5" x2="3138.8857" y1="264.5137" y2="264.5137"/><polygon fill="#4177AF" points="2975.5,275.3242,2971.5,281.3242,2979.5,281.3242" style="stroke:#1963A0;stroke-width:1.0;"/><text fill="#000000" font-family="sans-serif" font-size="14" font-style="italic" lengthAdjust="spacing" textLength="149.3857" x="2984.5" y="283.6211">Command parse(String)</text></g><!--class UnixLikeCommandParser--><g id="elem_UnixLikeCommandParser"><rect codeLine="110" fill="#F1F1F1" height="103.8633" id="UnixLikeCommandParser" rx="2.5" ry="2.5" style="stroke:#181818;stroke-width:0.5;" width="270.3164" x="2917" y="453.0137"/><ellipse cx="2968.1567" cy="469.0137" fill="#ADD1B2" rx="11" ry="11" style="stroke:#181818;stroke-width:1.0;"/><path d="M2970.9224,464.8887 Q2971.0786,464.6699 2971.2661,464.5605 Q2971.4536,464.4512 2971.6724,464.4512 Q2972.0474,464.4512 2972.2817,464.7168 Q2972.5161,464.9668 2972.5161,465.5762 L2972.5161,467.0293 Q2972.5161,467.6387 2972.2817,467.9043 Q2972.0474,468.1699 2971.6724,468.1699 Q2971.3286,468.1699 2971.1255,467.9668 Q2970.9224,467.7793 2970.813,467.2637 Q2970.7661,466.9043 2970.5786,466.7168 Q2970.2505,466.3418 2969.6411,466.123 Q2969.0317,465.9043 2968.4067,465.9043 Q2967.6411,465.9043 2967.0005,466.2324 Q2966.3755,466.5605 2965.8755,467.3105 Q2965.3911,468.0605 2965.3911,469.0918 L2965.3911,470.1855 Q2965.3911,471.4199 2966.2817,472.248 Q2967.1724,473.0605 2968.7661,473.0605 Q2969.7036,473.0605 2970.3599,472.8105 Q2970.7505,472.6543 2971.1724,472.2168 Q2971.438,471.9512 2971.5786,471.873 Q2971.7349,471.7949 2971.938,471.7949 Q2972.2661,471.7949 2972.5161,472.0605 Q2972.7817,472.3105 2972.7817,472.6543 Q2972.7817,472.998 2972.438,473.4043 Q2971.938,473.9824 2971.1411,474.3105 Q2970.063,474.7637 2968.7661,474.7637 Q2967.2505,474.7637 2966.0474,474.1387 Q2965.063,473.6387 2964.3755,472.5762 Q2963.688,471.498 2963.688,470.2168 L2963.688,469.0605 Q2963.688,467.7324 2964.2974,466.5918 Q2964.9224,465.4355 2966.0161,464.8262 Q2967.1099,464.2012 2968.3442,464.2012 Q2969.0786,464.2012 2969.7192,464.373 Q2970.3755,464.5293 2970.9224,464.8887 Z " fill="#000000"/><text fill="#000000" font-family="sans-serif" font-size="14" lengthAdjust="spacing" textLength="159.5029" x="2988.6567" y="474.8105">UnixLikeCommandParser</text><line style="stroke:#181818;stroke-width:0.5;" x1="2918" x2="3186.3164" y1="485.0137" y2="485.0137"/><line style="stroke:#181818;stroke-width:0.5;" x1="2918" x2="3186.3164" y1="493.0137" y2="493.0137"/><ellipse cx="2928" cy="507.8242" fill="#84BE84" rx="3" ry="3" style="stroke:#038048;stroke-width:1.0;"/><text fill="#000000" font-family="sans-serif" font-size="14" lengthAdjust="spacing" textLength="149.3857" x="2937" y="512.1211">Command parse(String)</text><rect fill="#F24D5C" height="6" style="stroke:#C82930;stroke-width:1.0;" width="6" x="2925" y="523.4453"/><text fill="#000000" font-family="sans-serif" font-size="14" lengthAdjust="spacing" textLength="217.0889" x="2937" y="530.7422">List&lt;String&gt; splitArguments(String)</text><rect fill="#F24D5C" height="6" style="stroke:#C82930;stroke-width:1.0;" width="6" x="2925" y="542.0664"/><text fill="#000000" font-family="sans-serif" font-size="14" lengthAdjust="spacing" textLength="244.3164" x="2937" y="549.3633">Command mapCommand(List&lt;String&gt;)</text></g><!--class IExplorerController--><g id="elem_IExplorerController"><rect codeLine="17" fill="#F1F1F1" height="66.6211" id="IExplorerController" rx="2.5" ry="2.5" style="stroke:#181818;stroke-width:0.5;" width="225.9717" x="1233" y="224.5137"/><ellipse cx="1283.3809" cy="240.5137" fill="#B4A7E5" rx="11" ry="11" style="stroke:#181818;stroke-width:1.0;"/><path d="M1284.334,237.1543 L1284.334,243.8105 L1286.0527,243.8105 Q1286.6621,243.8105 1286.9277,244.0449 Q1287.1934,244.2793 1287.1934,244.6699 Q1287.1934,245.0449 1286.9277,245.2793 Q1286.6621,245.5137 1286.0527,245.5137 L1280.9121,245.5137 Q1280.3027,245.5137 1280.0371,245.2793 Q1279.7715,245.0449 1279.7715,244.6543 Q1279.7715,244.2793 1280.0371,244.0449 Q1280.3027,243.8105 1280.9121,243.8105 L1282.6309,243.8105 L1282.6309,237.1543 L1280.9121,237.1543 Q1280.3027,237.1543 1280.0371,236.9199 Q1279.7715,236.6855 1279.7715,236.2949 Q1279.7715,235.9199 1280.0371,235.6855 Q1280.3027,235.4512 1280.9121,235.4512 L1286.0527,235.4512 Q1286.6621,235.4512 1286.9277,235.6855 Q1287.1934,235.9199 1287.1934,236.2949 Q1287.1934,236.6855 1286.9277,236.9199 Q1286.6621,237.1543 1286.0527,237.1543 L1284.334,237.1543 Z " fill="#000000"/><text fill="#000000" font-family="sans-serif" font-size="14" font-style="italic" lengthAdjust="spacing" textLength="116.71" x="1303.8809" y="246.3105">IExplorerController</text><line style="stroke:#181818;stroke-width:0.5;" x1="1234" x2="1457.9717" y1="256.5137" y2="256.5137"/><line style="stroke:#181818;stroke-width:0.5;" x1="1234" x2="1457.9717" y1="264.5137" y2="264.5137"/><ellipse cx="1244" cy="279.3242" fill="#84BE84" rx="3" ry="3" style="stroke:#038048;stroke-width:1.0;"/><text fill="#000000" font-family="sans-serif" font-size="14" lengthAdjust="spacing" textLength="199.9717" x="1253" y="283.6211">String executeCommand(String)</text></g><!--class ExplorerController--><g id="elem_ExplorerController"><rect codeLine="72" fill="#F1F1F1" height="196.9688" id="ExplorerController" rx="2.5" ry="2.5" style="stroke:#181818;stroke-width:0.5;" width="325.5645" x="1183" y="406.5137"/><ellipse cx="1285.1221" cy="422.5137" fill="#ADD1B2" rx="11" ry="11" style="stroke:#181818;stroke-width:1.0;"/><path d="M1287.8877,418.3887 Q1288.0439,418.1699 1288.2314,418.0605 Q1288.4189,417.9512 1288.6377,417.9512 Q1289.0127,417.9512 1289.2471,418.2168 Q1289.4814,418.4668 1289.4814,419.0762 L1289.4814,420.5293 Q1289.4814,421.1387 1289.2471,421.4043 Q1289.0127,421.6699 1288.6377,421.6699 Q1288.2939,421.6699 1288.0908,421.4668 Q1287.8877,421.2793 1287.7783,420.7637 Q1287.7314,420.4043 1287.5439,420.2168 Q1287.2158,419.8418 1286.6064,419.623 Q1285.9971,419.4043 1285.3721,419.4043 Q1284.6064,419.4043 1283.9658,419.7324 Q1283.3408,420.0605 1282.8408,420.8105 Q1282.3564,421.5605 1282.3564,422.5918 L1282.3564,423.6855 Q1282.3564,424.9199 1283.2471,425.748 Q1284.1377,426.5605 1285.7314,426.5605 Q1286.6689,426.5605 1287.3252,426.3105 Q1287.7158,426.1543 1288.1377,425.7168 Q1288.4033,425.4512 1288.5439,425.373 Q1288.7002,425.2949 1288.9033,425.2949 Q1289.2314,425.2949 1289.4814,425.5605 Q1289.7471,425.8105 1289.7471,426.1543 Q1289.7471,426.498 1289.4033,426.9043 Q1288.9033,427.4824 1288.1064,427.8105 Q1287.0283,428.2637 1285.7314,428.2637 Q1284.2158,428.2637 1283.0127,427.6387 Q1282.0283,427.1387 1281.3408,426.0762 Q1280.6533,424.998 1280.6533,423.7168 L1280.6533,422.5605 Q1280.6533,421.2324 1281.2627,420.0918 Q1281.8877,418.9355 1282.9814,418.3262 Q1284.0752,417.7012 1285.3096,417.7012 Q1286.0439,417.7012 1286.6846,417.873 Q1287.3408,418.0293 1287.8877,418.3887 Z " fill="#000000"/><text fill="#000000" font-family="sans-serif" font-size="14" lengthAdjust="spacing" textLength="112.8203" x="1305.6221" y="428.3105">ExplorerController</text><line style="stroke:#181818;stroke-width:0.5;" x1="1184" x2="1507.5645" y1="438.5137" y2="438.5137"/><rect fill="none" height="6" style="stroke:#C82930;stroke-width:1.0;" width="6" x="1191" y="450.3242"/><text fill="#000000" font-family="sans-serif" font-size="14" lengthAdjust="spacing" textLength="178.1855" x="1203" y="457.6211">FolderInode currentDirectory</text><line style="stroke:#181818;stroke-width:0.5;" x1="1184" x2="1507.5645" y1="465.1348" y2="465.1348"/><ellipse cx="1194" cy="479.9453" fill="#84BE84" rx="3" ry="3" style="stroke:#038048;stroke-width:1.0;"/><text fill="#000000" font-family="sans-serif" font-size="14" lengthAdjust="spacing" textLength="183.627" x="1203" y="484.2422">&#171;Create&#187; ExplorerController()</text><ellipse cx="1194" cy="498.5664" fill="#84BE84" rx="3" ry="3" style="stroke:#038048;stroke-width:1.0;"/><text fill="#000000" font-family="sans-serif" font-size="14" lengthAdjust="spacing" textLength="199.9717" x="1203" y="502.8633">String executeCommand(String)</text><rect fill="#F24D5C" height="6" style="stroke:#C82930;stroke-width:1.0;" width="6" x="1191" y="514.1875"/><text fill="#000000" font-family="sans-serif" font-size="14" lengthAdjust="spacing" textLength="299.5645" x="1203" y="521.4844">String doCommand(ChangeDirectoryCommand)</text><rect fill="#F24D5C" height="6" style="stroke:#C82930;stroke-width:1.0;" width="6" x="1191" y="532.8086"/><text fill="#000000" font-family="sans-serif" font-size="14" lengthAdjust="spacing" textLength="225.627" x="1203" y="540.1055">String doCommand(ErrorCommand)</text><rect fill="#F24D5C" height="6" style="stroke:#C82930;stroke-width:1.0;" width="6" x="1191" y="551.4297"/><text fill="#000000" font-family="sans-serif" font-size="14" lengthAdjust="spacing" textLength="216.3027" x="1203" y="558.7266">String doCommand(ListCommand)</text><rect fill="#F24D5C" height="6" style="stroke:#C82930;stroke-width:1.0;" width="6" x="1191" y="570.0508"/><text fill="#000000" font-family="sans-serif" font-size="14" lengthAdjust="spacing" textLength="284.7578" x="1203" y="577.3477">String doCommand(MakeDirectoryCommand)</text><rect fill="#F24D5C" height="6" style="stroke:#C82930;stroke-width:1.0;" width="6" x="1191" y="588.6719"/><text fill="#000000" font-family="sans-serif" font-size="14" lengthAdjust="spacing" textLength="233.4268" x="1203" y="595.9688">String doCommand(TouchCommand)</text></g><!--class AbstractInterface--><g id="elem_AbstractInterface"><rect codeLine="38" fill="#F1F1F1" height="85.2422" id="AbstractInterface" rx="2.5" ry="2.5" style="stroke:#181818;stroke-width:0.5;" width="319.3438" x="654.5" y="462.5137"/><ellipse cx="757.0083" cy="478.5137" fill="#A9DCDF" rx="11" ry="11" style="stroke:#181818;stroke-width:1.0;"/><path d="M759.1958,480.2793 L755.0552,480.2793 L754.6333,481.3105 L755.0552,481.3105 Q755.6646,481.3105 755.9302,481.5449 Q756.1958,481.7793 756.1958,482.1699 Q756.1958,482.5449 755.9302,482.7793 Q755.6646,483.0137 755.0552,483.0137 L752.7583,483.0137 Q752.1489,483.0137 751.8989,482.7793 Q751.6333,482.5449 751.6333,482.1543 Q751.6333,481.7793 751.9146,481.5449 Q752.1802,481.2949 752.8052,481.3105 L755.4771,474.6543 L754.3677,474.6543 Q753.7583,474.6543 753.4927,474.4199 Q753.2271,474.1855 753.2271,473.7949 Q753.2271,473.4199 753.4927,473.1855 Q753.7583,472.9512 754.3677,472.9512 L758.0396,472.9512 L761.4302,481.3105 Q762.0239,481.3105 762.2114,481.4512 Q762.6021,481.7168 762.6021,482.1699 Q762.6021,482.5449 762.3364,482.7793 Q762.0864,483.0137 761.4771,483.0137 L759.1802,483.0137 Q758.5708,483.0137 758.3052,482.7793 Q758.0396,482.5449 758.0396,482.1543 Q758.0396,481.7793 758.3052,481.5449 Q758.5708,481.3105 759.1802,481.3105 L759.6021,481.3105 L759.1958,480.2793 Z M758.4771,478.5762 L757.1177,475.2012 L755.7427,478.5762 L758.4771,478.5762 Z " fill="#000000"/><text fill="#000000" font-family="sans-serif" font-size="14" font-style="italic" lengthAdjust="spacing" textLength="105.8271" x="777.5083" y="484.3105">AbstractInterface</text><line style="stroke:#181818;stroke-width:0.5;" x1="655.5" x2="972.8438" y1="494.5137" y2="494.5137"/><polygon fill="none" points="665.5,504.3242,669.5,508.3242,665.5,512.3242,661.5,508.3242" style="stroke:#B38D22;stroke-width:1.0;"/><text fill="#000000" font-family="sans-serif" font-size="14" lengthAdjust="spacing" textLength="178.1787" x="674.5" y="513.6211">IExplorerController controller</text><line style="stroke:#181818;stroke-width:0.5;" x1="655.5" x2="972.8438" y1="521.1348" y2="521.1348"/><ellipse cx="665.5" cy="535.9453" fill="#84BE84" rx="3" ry="3" style="stroke:#038048;stroke-width:1.0;"/><text fill="#000000" font-family="sans-serif" font-size="14" lengthAdjust="spacing" textLength="293.3438" x="674.5" y="540.2422">&#171;Create&#187; AbstractInterface(IExplorerController)</text></g><!--class HttpInterface--><g id="elem_HttpInterface"><rect codeLine="51" fill="#F1F1F1" height="234.2109" id="HttpInterface" rx="2.5" ry="2.5" style="stroke:#181818;stroke-width:0.5;" width="293.668" x="502" y="663.5137"/><ellipse cx="604.5083" cy="679.5137" fill="#ADD1B2" rx="11" ry="11" style="stroke:#181818;stroke-width:1.0;"/><path d="M607.2739,675.3887 Q607.4302,675.1699 607.6177,675.0605 Q607.8052,674.9512 608.0239,674.9512 Q608.3989,674.9512 608.6333,675.2168 Q608.8677,675.4668 608.8677,676.0762 L608.8677,677.5293 Q608.8677,678.1387 608.6333,678.4043 Q608.3989,678.6699 608.0239,678.6699 Q607.6802,678.6699 607.4771,678.4668 Q607.2739,678.2793 607.1646,677.7637 Q607.1177,677.4043 606.9302,677.2168 Q606.6021,676.8418 605.9927,676.623 Q605.3833,676.4043 604.7583,676.4043 Q603.9927,676.4043 603.3521,676.7324 Q602.7271,677.0605 602.2271,677.8105 Q601.7427,678.5605 601.7427,679.5918 L601.7427,680.6855 Q601.7427,681.9199 602.6333,682.748 Q603.5239,683.5605 605.1177,683.5605 Q606.0552,683.5605 606.7114,683.3105 Q607.1021,683.1543 607.5239,682.7168 Q607.7896,682.4512 607.9302,682.373 Q608.0864,682.2949 608.2896,682.2949 Q608.6177,682.2949 608.8677,682.5605 Q609.1333,682.8105 609.1333,683.1543 Q609.1333,683.498 608.7896,683.9043 Q608.2896,684.4824 607.4927,684.8105 Q606.4146,685.2637 605.1177,685.2637 Q603.6021,685.2637 602.3989,684.6387 Q601.4146,684.1387 600.7271,683.0762 Q600.0396,681.998 600.0396,680.7168 L600.0396,679.5605 Q600.0396,678.2324 600.6489,677.0918 Q601.2739,675.9355 602.3677,675.3262 Q603.4614,674.7012 604.6958,674.7012 Q605.4302,674.7012 606.0708,674.873 Q606.7271,675.0293 607.2739,675.3887 Z " fill="#000000"/><text fill="#000000" font-family="sans-serif" font-size="14" lengthAdjust="spacing" textLength="80.1514" x="625.0083" y="685.3105">HttpInterface</text><line style="stroke:#181818;stroke-width:0.5;" x1="503" x2="794.668" y1="695.5137" y2="695.5137"/><rect fill="none" height="6" style="stroke:#C82930;stroke-width:1.0;" width="6" x="510" y="707.3242"/><text fill="#000000" font-family="sans-serif" font-size="14" lengthAdjust="spacing" textLength="109.6963" x="522" y="714.6211">HttpServer server</text><rect fill="none" height="6" style="stroke:#C82930;stroke-width:1.0;" width="6" x="510" y="725.9453"/><text fill="#000000" font-family="sans-serif" font-size="14" lengthAdjust="spacing" textLength="173.5371" x="522" y="733.2422">ExecutorService threadPool</text><rect fill="none" height="6" style="stroke:#C82930;stroke-width:1.0;" width="6" x="510" y="744.5664"/><text fill="#000000" font-family="sans-serif" font-size="14" lengthAdjust="spacing" textLength="171.999" x="522" y="751.8633">boolean serverShouldClose</text><line style="stroke:#181818;stroke-width:0.5;" x1="503" x2="794.668" y1="759.377" y2="759.377"/><ellipse cx="513" cy="774.1875" fill="#84BE84" rx="3" ry="3" style="stroke:#038048;stroke-width:1.0;"/><text fill="#000000" font-family="sans-serif" font-size="14" lengthAdjust="spacing" textLength="267.668" x="522" y="778.4844">&#171;Create&#187; HttpInterface(IExplorerController)</text><ellipse cx="513" cy="792.8086" fill="#84BE84" rx="3" ry="3" style="stroke:#038048;stroke-width:1.0;"/><text fill="#000000" font-family="sans-serif" font-size="14" lengthAdjust="spacing" textLength="59.1309" x="522" y="797.1055">void run()</text><ellipse cx="513" cy="811.4297" fill="#84BE84" rx="3" ry="3" style="stroke:#038048;stroke-width:1.0;"/><text fill="#000000" font-family="sans-serif" font-size="14" lengthAdjust="spacing" textLength="168.8818" x="522" y="815.7266">void handle(HttpExchange)</text><rect fill="#F24D5C" height="6" style="stroke:#C82930;stroke-width:1.0;" width="6" x="510" y="827.0508"/><text fill="#000000" font-family="sans-serif" font-size="14" lengthAdjust="spacing" textLength="235.8057" x="522" y="834.3477">void handleGetDefault(HttpExchange)</text><rect fill="#F24D5C" height="6" style="stroke:#C82930;stroke-width:1.0;" width="6" x="510" y="845.6719"/><text fill="#000000" font-family="sans-serif" font-size="14" lengthAdjust="spacing" textLength="247.4814" x="522" y="852.9688">void handlePostExecute(HttpExchange)</text><rect fill="#F24D5C" height="6" style="stroke:#C82930;stroke-width:1.0;" width="6" x="510" y="864.293"/><text fill="#000000" font-family="sans-serif" font-size="14" lengthAdjust="spacing" textLength="199.9922" x="522" y="871.5898">void handleError(HttpExchange)</text><rect fill="#F24D5C" height="6" style="stroke:#C82930;stroke-width:1.0;" width="6" x="510" y="882.9141"/><text fill="#000000" font-family="sans-serif" font-size="14" lengthAdjust="spacing" textLength="168.0684" x="522" y="890.2109">String constructWebPage()</text></g><!--class TextInterface--><g id="elem_TextInterface"><rect codeLine="105" fill="#F1F1F1" height="85.2422" id="TextInterface" rx="2.5" ry="2.5" style="stroke:#181818;stroke-width:0.5;" width="295.2197" x="831.5" y="738.0137"/><ellipse cx="934.0083" cy="754.0137" fill="#ADD1B2" rx="11" ry="11" style="stroke:#181818;stroke-width:1.0;"/><path d="M936.7739,749.8887 Q936.9302,749.6699 937.1177,749.5605 Q937.3052,749.4512 937.5239,749.4512 Q937.8989,749.4512 938.1333,749.7168 Q938.3677,749.9668 938.3677,750.5762 L938.3677,752.0293 Q938.3677,752.6387 938.1333,752.9043 Q937.8989,753.1699 937.5239,753.1699 Q937.1802,753.1699 936.9771,752.9668 Q936.7739,752.7793 936.6646,752.2637 Q936.6177,751.9043 936.4302,751.7168 Q936.1021,751.3418 935.4927,751.123 Q934.8833,750.9043 934.2583,750.9043 Q933.4927,750.9043 932.8521,751.2324 Q932.2271,751.5605 931.7271,752.3105 Q931.2427,753.0605 931.2427,754.0918 L931.2427,755.1855 Q931.2427,756.4199 932.1333,757.248 Q933.0239,758.0605 934.6177,758.0605 Q935.5552,758.0605 936.2114,757.8105 Q936.6021,757.6543 937.0239,757.2168 Q937.2896,756.9512 937.4302,756.873 Q937.5864,756.7949 937.7896,756.7949 Q938.1177,756.7949 938.3677,757.0605 Q938.6333,757.3105 938.6333,757.6543 Q938.6333,757.998 938.2896,758.4043 Q937.7896,758.9824 936.9927,759.3105 Q935.9146,759.7637 934.6177,759.7637 Q933.1021,759.7637 931.8989,759.1387 Q930.9146,758.6387 930.2271,757.5762 Q929.5396,756.498 929.5396,755.2168 L929.5396,754.0605 Q929.5396,752.7324 930.1489,751.5918 Q930.7739,750.4355 931.8677,749.8262 Q932.9614,749.2012 934.1958,749.2012 Q934.9302,749.2012 935.5708,749.373 Q936.2271,749.5293 936.7739,749.8887 Z " fill="#000000"/><text fill="#000000" font-family="sans-serif" font-size="14" lengthAdjust="spacing" textLength="81.7031" x="954.5083" y="759.8105">TextInterface</text><line style="stroke:#181818;stroke-width:0.5;" x1="832.5" x2="1125.7197" y1="770.0137" y2="770.0137"/><line style="stroke:#181818;stroke-width:0.5;" x1="832.5" x2="1125.7197" y1="778.0137" y2="778.0137"/><ellipse cx="842.5" cy="792.8242" fill="#84BE84" rx="3" ry="3" style="stroke:#038048;stroke-width:1.0;"/><text fill="#000000" font-family="sans-serif" font-size="14" lengthAdjust="spacing" textLength="269.2197" x="851.5" y="797.1211">&#171;Create&#187; TextInterface(IExplorerController)</text><ellipse cx="842.5" cy="811.4453" fill="#84BE84" rx="3" ry="3" style="stroke:#038048;stroke-width:1.0;"/><text fill="#000000" font-family="sans-serif" font-size="14" lengthAdjust="spacing" textLength="59.1309" x="851.5" y="815.7422">void run()</text></g><!--class IUserInterface--><g id="elem_IUserInterface"><rect codeLine="116" fill="#F1F1F1" height="66.6211" id="IUserInterface" rx="2.5" ry="2.5" style="stroke:#181818;stroke-width:0.5;" width="119.9238" x="754" y="224.5137"/><ellipse cx="769" cy="240.5137" fill="#B4A7E5" rx="11" ry="11" style="stroke:#181818;stroke-width:1.0;"/><path d="M769.9531,237.1543 L769.9531,243.8105 L771.6719,243.8105 Q772.2813,243.8105 772.5469,244.0449 Q772.8125,244.2793 772.8125,244.6699 Q772.8125,245.0449 772.5469,245.2793 Q772.2813,245.5137 771.6719,245.5137 L766.5313,245.5137 Q765.9219,245.5137 765.6563,245.2793 Q765.3906,245.0449 765.3906,244.6543 Q765.3906,244.2793 765.6563,244.0449 Q765.9219,243.8105 766.5313,243.8105 L768.25,243.8105 L768.25,237.1543 L766.5313,237.1543 Q765.9219,237.1543 765.6563,236.9199 Q765.3906,236.6855 765.3906,236.2949 Q765.3906,235.9199 765.6563,235.6855 Q765.9219,235.4512 766.5313,235.4512 L771.6719,235.4512 Q772.2813,235.4512 772.5469,235.6855 Q772.8125,235.9199 772.8125,236.2949 Q772.8125,236.6855 772.5469,236.9199 Q772.2813,237.1543 771.6719,237.1543 L769.9531,237.1543 Z " fill="#000000"/><text fill="#000000" font-family="sans-serif" font-size="14" font-style="italic" lengthAdjust="spacing" textLength="87.9238" x="783" y="246.3105">IUserInterface</text><line style="stroke:#181818;stroke-width:0.5;" x1="755" x2="872.9238" y1="256.5137" y2="256.5137"/><line style="stroke:#181818;stroke-width:0.5;" x1="755" x2="872.9238" y1="264.5137" y2="264.5137"/><ellipse cx="765" cy="279.3242" fill="#84BE84" rx="3" ry="3" style="stroke:#038048;stroke-width:1.0;"/><text fill="#000000" font-family="sans-serif" font-size="14" lengthAdjust="spacing" textLength="59.1309" x="774" y="283.6211">void run()</text></g><!--class HttpHandler--><g id="elem_HttpHandler"><rect fill="#F1F1F1" height="48" id="HttpHandler" rx="2.5" ry="2.5" style="stroke:#181818;stroke-width:0.5;" width="106.7031" x="94.5" y="481.0137"/><ellipse cx="109.5" cy="497.0137" fill="#ADD1B2" rx="11" ry="11" style="stroke:#181818;stroke-width:1.0;"/><path d="M112.2656,492.8887 Q112.4219,492.6699 112.6094,492.5605 Q112.7969,492.4512 113.0156,492.4512 Q113.3906,492.4512 113.625,492.7168 Q113.8594,492.9668 113.8594,493.5762 L113.8594,495.0293 Q113.8594,495.6387 113.625,495.9043 Q113.3906,496.1699 113.0156,496.1699 Q112.6719,496.1699 112.4688,495.9668 Q112.2656,495.7793 112.1563,495.2637 Q112.1094,494.9043 111.9219,494.7168 Q111.5938,494.3418 110.9844,494.123 Q110.375,493.9043 109.75,493.9043 Q108.9844,493.9043 108.3438,494.2324 Q107.7188,494.5605 107.2188,495.3105 Q106.7344,496.0605 106.7344,497.0918 L106.7344,498.1855 Q106.7344,499.4199 107.625,500.248 Q108.5156,501.0605 110.1094,501.0605 Q111.0469,501.0605 111.7031,500.8105 Q112.0938,500.6543 112.5156,500.2168 Q112.7813,499.9512 112.9219,499.873 Q113.0781,499.7949 113.2813,499.7949 Q113.6094,499.7949 113.8594,500.0605 Q114.125,500.3105 114.125,500.6543 Q114.125,500.998 113.7813,501.4043 Q113.2813,501.9824 112.4844,502.3105 Q111.4063,502.7637 110.1094,502.7637 Q108.5938,502.7637 107.3906,502.1387 Q106.4063,501.6387 105.7188,500.5762 Q105.0313,499.498 105.0313,498.2168 L105.0313,497.0605 Q105.0313,495.7324 105.6406,494.5918 Q106.2656,493.4355 107.3594,492.8262 Q108.4531,492.2012 109.6875,492.2012 Q110.4219,492.2012 111.0625,492.373 Q111.7188,492.5293 112.2656,492.8887 Z " fill="#000000"/><text fill="#000000" font-family="sans-serif" font-size="14" lengthAdjust="spacing" textLength="74.7031" x="123.5" y="502.8105">HttpHandler</text><line style="stroke:#181818;stroke-width:0.5;" x1="95.5" x2="200.2031" y1="513.0137" y2="513.0137"/><line style="stroke:#181818;stroke-width:0.5;" x1="95.5" x2="200.2031" y1="521.0137" y2="521.0137"/></g><!--reverse link Inode to FileInode--><g id="link_Inode_FileInode"><path codeLine="122" d="M3440.0334,354.2286 C3420.6834,391.8286 3406.37,419.6837 3389.32,452.8437 " fill="none" id="Inode-backto-FileInode" style="stroke:#181818;stroke-width:1.0;"/><polygon fill="none" points="3448.27,338.2237,3434.6984,351.4831,3445.3684,356.9742,3448.27,338.2237" style="stroke:#181818;stroke-width:1.0;"/></g><!--reverse link Command to ChangeDirectoryCommand--><g id="link_Command_ChangeDirectoryCommand"><path codeLine="123" d="M2109.6471,269.7557 C2049.7371,280.5857 1964.05,301.1637 1886,346.0137 C1837.42,373.9337 1791.6,418.3437 1759.96,452.9737 " fill="none" id="Command-backto-ChangeDirectoryCommand" style="stroke:#181818;stroke-width:1.0;"/><polygon fill="none" points="2127.36,266.5537,2108.5798,263.8514,2110.7144,275.66,2127.36,266.5537" style="stroke:#181818;stroke-width:1.0;"/></g><!--reverse link Command to ListCommand--><g id="link_Command_ListCommand"><path codeLine="124" d="M2111.3247,290.1887 C2083.0447,305.2587 2064.23,318.8037 2040,346.0137 C2003.67,386.8037 1980.5,447.8037 1969.85,480.8037 " fill="none" id="Command-backto-ListCommand" style="stroke:#181818;stroke-width:1.0;"/><polygon fill="none" points="2127.21,281.7237,2108.503,284.8936,2114.1464,295.4838,2127.21,281.7237" style="stroke:#181818;stroke-width:1.0;"/></g><!--reverse link IUserInterface to AbstractInterface--><g id="link_IUserInterface_AbstractInterface"><path codeLine="125" d="M814,309.5437 C814,353.5437 814,414.0437 814,462.3237 " fill="none" id="IUserInterface-backto-AbstractInterface" style="stroke:#181818;stroke-width:1.0;stroke-dasharray:7.0,7.0;"/><polygon fill="none" points="814,291.5437,808,309.5437,820,309.5437,814,291.5437" style="stroke:#181818;stroke-width:1.0;"/></g><!--reverse link Command to TouchCommand--><g id="link_Command_TouchCommand"><path codeLine="126" d="M2176,300.0637 C2176,338.8937 2176,400.2537 2176,452.7937 " fill="none" id="Command-backto-TouchCommand" style="stroke:#181818;stroke-width:1.0;"/><polygon fill="none" points="2176,282.0637,2170,300.0637,2182,300.0637,2176,282.0637" style="stroke:#181818;stroke-width:1.0;"/></g><!--reverse link HttpHandler to HttpInterface--><g id="link_HttpHandler_HttpInterface"><path codeLine="127" d="M206.0786,537.7195 C274.1386,574.8795 395.35,641.0437 501.99,699.2637 " fill="none" id="HttpHandler-backto-HttpInterface" style="stroke:#181818;stroke-width:1.0;stroke-dasharray:7.0,7.0;"/><polygon fill="none" points="190.28,529.0937,203.2033,542.9857,208.9539,532.4533,190.28,529.0937" style="stroke:#181818;stroke-width:1.0;"/></g><!--reverse link AbstractInterface to HttpInterface--><g id="link_AbstractInterface_HttpInterface"><path codeLine="128" d="M779.6409,562.9656 C761.0209,593.8256 743.96,622.1137 719.13,663.2737 " fill="none" id="AbstractInterface-backto-HttpInterface" style="stroke:#181818;stroke-width:1.0;"/><polygon fill="none" points="788.94,547.5537,774.5036,559.8659,784.7782,566.0653,788.94,547.5537" style="stroke:#181818;stroke-width:1.0;"/></g><!--reverse link Command to ErrorCommand--><g id="link_Command_ErrorCommand"><path codeLine="129" d="M2235.0125,291.1344 C2262.9525,307.1244 2283.6,321.0037 2312,346.0137 C2348.22,377.9037 2382.94,420.0937 2407.68,452.8637 " fill="none" id="Command-backto-ErrorCommand" style="stroke:#181818;stroke-width:1.0;"/><polygon fill="none" points="2219.39,282.1937,2232.0323,296.3419,2237.9928,285.9269,2219.39,282.1937" style="stroke:#181818;stroke-width:1.0;"/></g><!--reverse link IExplorerController to ExplorerController--><g id="link_IExplorerController_ExplorerController"><path codeLine="130" d="M1346,309.5437 C1346,338.9037 1346,365.6137 1346,406.4537 " fill="none" id="IExplorerController-backto-ExplorerController" style="stroke:#181818;stroke-width:1.0;stroke-dasharray:7.0,7.0;"/><polygon fill="none" points="1346,291.5437,1340,309.5437,1352,309.5437,1346,291.5437" style="stroke:#181818;stroke-width:1.0;"/></g><!--reverse link Inode to FolderInode--><g id="link_Inode_FolderInode"><path codeLine="131" d="M3538.3445,354.2039 C3552.6945,381.8839 3560.51,396.9637 3574.87,424.6637 " fill="none" id="Inode-backto-FolderInode" style="stroke:#181818;stroke-width:1.0;"/><polygon fill="none" points="3530.06,338.2237,3533.0178,356.9654,3543.6713,351.4424,3530.06,338.2237" style="stroke:#181818;stroke-width:1.0;"/></g><!--reverse link Command to MakeDirectoryCommand--><g id="link_Command_MakeDirectoryCommand"><path codeLine="132" d="M2242.483,262.1567 C2320.843,267.1867 2460.21,283.7237 2576,346.0137 C2624.78,372.2537 2668.97,417.5237 2698.83,452.8937 " fill="none" id="Command-backto-MakeDirectoryCommand" style="stroke:#181818;stroke-width:1.0;"/><polygon fill="none" points="2224.52,261.0037,2242.0987,268.1444,2242.8674,256.1691,2224.52,261.0037" style="stroke:#181818;stroke-width:1.0;"/></g><!--reverse link AbstractInterface to TextInterface--><g id="link_AbstractInterface_TextInterface"><path codeLine="133" d="M848.3584,562.966 C879.3684,614.366 922.58,685.9937 953.7,737.5837 " fill="none" id="AbstractInterface-backto-TextInterface" style="stroke:#181818;stroke-width:1.0;"/><polygon fill="none" points="839.06,547.5537,843.2209,566.0655,853.4958,559.8666,839.06,547.5537" style="stroke:#181818;stroke-width:1.0;"/></g><!--reverse link ICommandParser to UnixLikeCommandParser--><g id="link_ICommandParser_UnixLikeCommandParser"><path codeLine="134" d="M3052,309.5437 C3052,350.8137 3052,404.4237 3052,452.9837 " fill="none" id="ICommandParser-backto-UnixLikeCommandParser" style="stroke:#181818;stroke-width:1.0;stroke-dasharray:7.0,7.0;"/><polygon fill="none" points="3052,291.5437,3046,309.5437,3058,309.5437,3052,291.5437" style="stroke:#181818;stroke-width:1.0;"/></g><!--SRC=[hLPBRzim3BxxLnZOnK4H7tOE0XHfiWPeXm1fiSEmWsgpYL1PCYIvo9Pcltsq_99ZrNQGNPfQV7tyI96A657AZqGIWg90mbG87NyD4n43K-6ACbXp_Dy_UbEVSkqh-WUy6tysMqWW6kPplzO9jbfIlfkWEDVSWTwYSZ3nJfxdHUuuU90G7gjmiITy1tTKGgI5_BqepatOmgsV4hrlHtRRM31AIqIoGUEHI1weqatuauUvW7mb4RXik9Q2CP0gN2yFAHCIvA8-HFCQ0nmWoZISOqH0v4LfIIBjHxsbQCfGUkGa0U-Bln8i1bb8KoA1wpP9vwLfEFcE3eByo7PXkCgz6Ccn0dVgLdG8TrDQYynFT2lkRjFKa7PKccWQdVntGMC_HSJw7bXQO6h94a9vcTtFNwFuhEkfmjjITLsN-8YCkYhPLBhDRiT3uB0UrtTF8elsZhv_nVkLbweTsDPsLdTLclLtlKN6lTQfJSJKpq-s8DynVsL-y6nf-bZ8_9oYdjuZedWZ14FX2_u0uQNsTYyo5Y-OK6VOMv7SXDqKrPKP3-eFlEqnWo2tNXuYS_Sd6DIIVGDz1wyaOxfFQoEKBjBeTRQKKiYEGaamzWCMFelq3tZPaDtOAMTyEcgSW5BefKsJhUmiyMDXDHIxcL7E4JLjtVyea_djhuVg6QIEWs0oEEFgB6DHYToJswbgi-1KiEQrK_v8tiP5igzKBwNLShHeosbyeFmDuXpEp1pE_MXFMOnqghEDsHXQTQqk3udZGcJ-vfAkOop-el8TT1TkPwIx8exfLnTtTj_6bQmxe5ocpYw-itsKlToxSqjikEoKMRobyutvHdH_hRLLOJRATkh3y_093gt5q1w_jd3423iDSrtbyypfuO6-mNbQDxuxcRpni3EApxclKaRrhTnb2LvZPMbLrWb9xQjJ6HgCFRnRpAoVLTvCDZNjL37PtbVCx6Cw7NvpUiDF2hUZWKVbzNwjaUDTGDJi8mmlUuzS3zKUQiQRodZ8GOTxN6p5dZQR_zxiF3cCiRMylSjULswiuvrVchozExoBN-zkAlhtwLMDtmpfwrDtZT__NQtM4FGkdjIVyJjc7lu3]--></g></svg>